<svg width="64" height="64" viewBox="0 0 64 64" fill="none" xmlns="http://www.w3.org/2000/svg">
<rect width="64" height="64" rx="32" fill="#A238FF"/>
<path fill-rule="evenodd" clip-rule="evenodd" d="M46.9031 18.7129C47.3102 16.3534 47.9075 14.8697 48.5692 14.8668H48.5706C49.8045 14.8711 50.8047 20.0167 50.8047 26.3697C50.8047 32.7226 49.803 37.8725 48.5678 37.8725C48.0614 37.8725 47.5942 36.9981 47.2179 35.5328C46.6234 40.8966 45.3895 44.584 43.9612 44.584C42.8561 44.584 41.8643 42.3691 41.1984 38.8758C40.7437 45.5193 39.5994 50.2327 38.262 50.2327C37.4227 50.2327 36.6575 48.3649 36.091 45.3238C35.4097 51.6016 33.8359 56.0004 32.0005 56.0004C30.1651 56.0004 28.5886 51.603 27.9101 45.3238C27.3477 48.3649 26.5826 50.2327 25.7389 50.2327C24.4016 50.2327 23.2601 45.5193 22.8027 38.8758C22.1368 42.3691 21.1478 44.584 20.0398 44.584C18.6129 44.584 17.3777 40.8981 16.7832 35.5328C16.4096 37.0024 15.9396 37.8725 15.4332 37.8725C14.198 37.8725 13.1963 32.7226 13.1963 26.3697C13.1963 20.0167 14.198 14.8668 15.4332 14.8668C16.0963 14.8668 16.6894 16.3548 17.1007 18.7129C17.7596 14.6444 18.8298 12 20.0398 12C21.4765 12 22.7215 15.7398 23.3105 21.1702C23.8868 17.2179 24.7611 14.6982 25.7404 14.6982C27.1127 14.6982 28.2794 19.6539 28.7117 26.5667C29.5244 23.0224 30.7009 20.7989 32.0033 20.7989C33.3057 20.7989 34.4822 23.0238 35.2935 26.5667C35.7272 19.6539 36.8925 14.6982 38.2648 14.6982C39.2427 14.6982 40.1156 17.2179 40.6948 21.1702C41.2823 15.7398 42.5273 12 43.964 12C45.1699 12 46.2442 14.6458 46.9031 18.7129ZM10 25.2383C10 22.3984 10.568 20.0955 11.2688 20.0955C11.9697 20.0955 12.5376 22.3984 12.5376 25.2383C12.5376 28.0782 11.9697 30.3811 11.2688 30.3811C10.568 30.3811 10 28.0782 10 25.2383ZM51.4625 25.2383C51.4625 22.3984 52.0304 20.0955 52.7313 20.0955C53.4321 20.0955 54.0001 22.3984 54.0001 25.2383C54.0001 28.0782 53.4321 30.3811 52.7313 30.3811C52.0304 30.3811 51.4625 28.0782 51.4625 25.2383Z" fill="#0F0D13"/>
</svg>
