<svg width="147" height="147" viewBox="0 0 147 147" fill="none" xmlns="http://www.w3.org/2000/svg">
<path d="M73.1637 146.33C32.822 146.33 0 113.508 0 73.1662C0 32.8245 32.822 0 73.1637 0C113.505 0 146.327 32.8219 146.327 73.1662C146.327 113.511 113.508 146.33 73.1637 146.33ZM73.1637 13.2406C40.1216 13.2406 13.2406 40.1241 13.2406 73.1662C13.2406 106.208 40.1216 133.089 73.1637 133.089C106.206 133.089 133.087 106.208 133.087 73.1662C133.087 40.1241 106.206 13.2406 73.1637 13.2406Z" fill="white"/>
<path d="M79.9649 43.211V38.2037L71.7518 25.8512H66.3624V43.211H45.2301L37.4193 51.0319V56.8134H66.3624H79.9649H96.558L108.911 48.6004V43.211H79.9649Z" fill="white"/>
<path d="M66.3624 66.3651H45.2301L37.4193 74.1834V79.965V97.3349V103.116H45.1921H51.0192H66.3624V112.668L74.1833 120.479H79.9649V103.116H96.558L108.911 94.9033V89.5165H79.9649H66.3624H51.0192V79.965H66.3624H79.9649H96.558L108.911 71.7519V66.3651H79.9649H66.3624Z" fill="white"/>
</svg>
