<svg width="417" height="411" viewBox="0 0 417 411" fill="none" xmlns="http://www.w3.org/2000/svg">
<g filter="url(#filter0_di)">
<path d="M142.9 234.62L221.547 311.955L208.002 325.5H182.66L116.685 260.398L142.9 234.62ZM311.116 141.555L374.033 203.598C373.159 160.343 355.245 119.272 323.787 89.1239C292.328 58.9762 250.383 41.9361 206.691 41.9361C162.999 41.9361 121.054 58.9762 89.5955 89.1239C58.5738 119.272 40.66 160.779 39.7861 203.598V204.472L104.451 140.681L130.666 166.459L102.266 194.423L133.288 224.57L107.072 250.349L105.762 249.038L76.0508 219.764L46.34 249.038C56.3892 283.118 77.7985 313.266 106.635 334.675C135.472 356.084 170.863 367.445 207.128 367.445C243.393 367.445 278.347 355.648 307.184 334.238C336.021 312.829 356.993 282.681 367.042 248.601L295.824 178.256H252.568L178.291 251.223L152.076 225.444L236.839 141.555H311.116ZM204.943 108.785L228.1 131.506L201.885 157.284L189.651 145.05H152.949L140.716 157.284L114.5 131.506L137.657 108.785H204.943ZM207.128 3.0499C247.325 3.0499 287.085 14.8469 320.291 37.13C353.935 59.4131 380.15 90.4347 395.442 127.136C410.735 163.838 415.104 204.472 407.239 243.358C399.375 282.244 379.713 318.072 351.313 346.472C322.913 374.435 286.211 393.66 246.888 401.525C207.128 409.389 166.057 405.457 128.919 390.165C91.7801 374.872 59.8846 349.094 37.1646 316.324C14.4445 283.555 3.08447 243.795 3.08447 204.035C3.08447 150.73 24.4937 99.6101 62.9431 62.0346C100.955 24.4592 152.949 3.0499 207.128 3.0499Z" fill="white"/>
</g>
<defs>
<filter id="filter0_di" x="0.0844727" y="0.0498962" width="415.991" height="410.423" filterUnits="userSpaceOnUse" color-interpolation-filters="sRGB">
<feFlood flood-opacity="0" result="BackgroundImageFix"/>
<feColorMatrix in="SourceAlpha" type="matrix" values="0 0 0 0 0 0 0 0 0 0 0 0 0 0 0 0 0 0 127 0"/>
<feOffset dx="1" dy="1"/>
<feGaussianBlur stdDeviation="2"/>
<feColorMatrix type="matrix" values="0 0 0 0 1 0 0 0 0 1 0 0 0 0 1 0 0 0 0.25 0"/>
<feBlend mode="normal" in2="BackgroundImageFix" result="effect1_dropShadow"/>
<feBlend mode="normal" in="SourceGraphic" in2="effect1_dropShadow" result="shape"/>
<feColorMatrix in="SourceAlpha" type="matrix" values="0 0 0 0 0 0 0 0 0 0 0 0 0 0 0 0 0 0 127 0" result="hardAlpha"/>
<feOffset dx="1" dy="1"/>
<feGaussianBlur stdDeviation="2"/>
<feComposite in2="hardAlpha" operator="arithmetic" k2="-1" k3="1"/>
<feColorMatrix type="matrix" values="0 0 0 0 0 0 0 0 0 0 0 0 0 0 0 0 0 0 0.25 0"/>
<feBlend mode="normal" in2="shape" result="effect2_innerShadow"/>
</filter>
</defs>
</svg>
