<?xml version="1.0" encoding="UTF-8"?>
<svg width="39px" height="39px" viewBox="0 0 39 39" version="1.1" xmlns="http://www.w3.org/2000/svg" xmlns:xlink="http://www.w3.org/1999/xlink">
    <!-- Generator: Sketch 48.2 (47327) - http://www.bohemiancoding.com/sketch -->
    <title>icon/services/for black/tidal</title>
    <desc>Created with Sketch.</desc>
    <defs></defs>
    <g id="Symbols" stroke="none" stroke-width="1" fill="none" fill-rule="evenodd">
        <g id="icon/services/for-black/tidal" fill-rule="nonzero">
            <g id="tidal">
                <circle id="Oval" fill="#FFFFFF" cx="19.5" cy="19.5" r="19.5"></circle>
                <g id="Tidal" transform="translate(7.800000, 12.953571)" fill="#000000">
                    <path d="M11.8334668,7.88244229 L11.7789789,7.85809954 C10.4987125,9.14823598 9.21238448,10.4322847 7.9321235,11.7163355 L7.9321235,11.7163368 C7.91998938,11.7406782 7.90785525,11.7771924 7.89571844,11.8015338 C8.77551816,12.6717664 9.64318375,13.5480854 10.516798,14.4244017 C10.9477184,14.8382191 11.3542467,15.2885507 11.7971801,15.6901954 C12.1065089,15.4163468 12.3977522,15.0877264 12.7011324,14.79562 C13.6355437,13.8645318 14.5700709,12.9212723 15.5043557,11.9901854 C15.5712252,11.9110721 15.662234,11.8563029 15.7045877,11.7589346 C14.4061282,10.4748839 13.1197975,9.17866443 11.8334668,7.88244229 Z" id="Shape"></path>
                    <path d="M11.7911103,7.85201385 C13.0471057,6.59839156 14.2971471,5.33868558 15.553016,4.08506294 C15.6076277,4.03029208 15.6743681,3.98160925 15.7047061,3.90858166 C14.436703,2.6671304 13.1987958,1.40133874 11.9428004,0.153801824 C11.8942585,0.105116703 11.8579745,0.0564337307 11.8214483,0.00166296164 L11.7729091,0.00166296164 C10.4926428,1.32831093 9.15170845,2.61236177 7.87751186,3.94509549 C9.19418059,5.2352319 10.4805113,6.55579442 11.7911103,7.85201385 Z" id="Shape"></path>
                    <path d="M7.85931066,3.95118115 L7.85931066,3.90249597 L5.17743397,1.21268607 C4.78303978,0.804954678 4.36449572,0.42765139 3.9942541,0.00166308544 L3.94571489,0.00166308544 C2.76253234,1.21877168 1.54901447,2.41153785 0.353697772,3.62256084 C0.256616661,3.72601688 0.129318611,3.81121349 0.0624544505,3.93900993 C1.36698638,5.24131538 2.66545393,6.54970889 3.96998585,7.85201402 C5.268448,6.55579442 6.56096687,5.24740092 7.85931066,3.95118115 Z" id="Shape"></path>
                    <path d="M23.3802129,3.76861383 C22.3973861,2.78275529 21.4203815,1.80298444 20.4374309,0.817125717 C20.176523,0.543276232 19.8913466,0.293769302 19.6486425,0.00166291743 L19.6001006,0.00166291743 C18.9690775,0.664986944 18.3137699,1.29788269 17.6706072,1.94903777 C17.0153104,2.60019051 16.3721423,3.26351444 15.7107759,3.90858166 C15.7411138,3.99378063 15.8199937,4.04246345 15.8806698,4.10940569 L19.6122402,7.85201385 C20.9349732,6.56796512 22.2091645,5.23523188 23.5258387,3.95118115 C23.5077531,3.87206989 23.4288732,3.82338471 23.3802129,3.76861383 Z" id="Shape"></path>
                </g>
            </g>
        </g>
    </g>
</svg>